# xmcd
#
# Track frame offsets: 
#        150
#        21945
#        41668
#        60221
#        78781
#        96973
#        115710
#        133671
#        150000
#        167586
#        186581
#        203279
#        224432
#        248821
#        273230
#        293573
#        313274
#        329998
#
# Disc length: 4658 seconds
#
# Revision: 0
# Processed by: cddbd v1.5.2PL0 Copyright (c) Steve Scherf et al.
# Submitted via: ExactAudioCopy v0.99pb5
#
DISCID=f6123012
DTITLE=The Breakthrough - Mary J. Blige
DYEAR=2005
DGENRE=R&B
TTITLE0=No One Will Do
TTITLE1=Enough Cryin
TTITLE2=About You
TTITLE3=Be Without You (Kendu Mix)
TTITLE4=Gonna Breakthrough
TTITLE5=Good Woman Down
TTITLE6=Take Me As I Am
TTITLE7=Baggage
TTITLE8=Can't Hide From Luv
TTITLE9=MJB Da MVP (Alternate Version)
TTITLE10=Can't Get Enough
TTITLE11=Ain't Really Love
TTITLE12=I Found My Everything
TTITLE13=Father In You
TTITLE14=Alone
TTITLE15=One
TTITLE16=Show Love (Hidden Track)
TTITLE17=Untitled (Hidden Track)
EXTD=
EXTT0=
EXTT1=
EXTT2=
EXTT3=
EXTT4=
EXTT5=
EXTT6=
EXTT7=
EXTT8=
EXTT9=
EXTT10=
EXTT11=
EXTT12=
EXTT13=
EXTT14=
EXTT15=
EXTT16=
EXTT17=
PLAYORDER=
